{"accessors" : [{"bufferView" : 0, "byteOffset" : 0, "componentType" : 5123, "count" : 576, "type" : "SCALAR", "max" : [119], "min" : [0]}, {"bufferView" : 1, "byteOffset" : 0, "componentType" : 5126, "count" : 120, "type" : "VEC3", "max" : [9.976929664611816, -4.348589897155762, 54.58190155029297], "min" : [-9.976929664611816, -14.33530044555664, 44.59659957885742], "name" : "POSITION"}, {"bufferView" : 1, "byteOffset" : 12, "componentType" : 5126, "count" : 120, "type" : "VEC3", "max" : [0.9795663356781006, -0.1694858968257904, 0.6319414973258972], "min" : [-0.9795663356781006, -0.6191067695617676, -0.015065676532685757], "name" : "NORMAL"}, {"bufferView" : 1, "byteOffset" : 24, "componentType" : 5126, "count" : 120, "type" : "VEC2", "max" : [0.4924899935722351, -0.7550599575042725], "min" : [0.007505952846258879, -0.9689099788665771], "name" : "TEXCOORD_0"}, {"bufferView" : 0, "byteOffset" : 1152, "componentType" : 5123, "count" : 12690, "type" : "SCALAR", "max" : [2696], "min" : [0]}, {"bufferView" : 2, "byteOffset" : 0, "componentType" : 5126, "count" : 2697, "type" : "VEC3", "max" : [26.600299835205078, 53.20709991455078, 59.80820083618164], "min" : [-26.600299835205078, -18.891000747680664, -9.999999974752427E-07], "name" : "POSITION"}, {"bufferView" : 2, "byteOffset" : 12, "componentType" : 5126, "count" : 2697, "type" : "VEC3", "max" : [0.9996961951255798, 0.9999871850013733, 0.999696671962738], "min" : [-0.9996961951255798, -0.9999772906303406, -1.0000044107437134], "name" : "NORMAL"}, {"bufferView" : 2, "byteOffset" : 24, "componentType" : 5126, "count" : 2697, "type" : "VEC2", "max" : [0.9948220252990723, 0.9946060180664062], "min" : [0.00517797376960516, 0.007812023162841797], "name" : "TEXCOORD_0"}, {"bufferView" : 0, "byteOffset" : 26532, "componentType" : 5123, "count" : 528, "type" : "SCALAR", "max" : [165], "min" : [0]}, {"bufferView" : 3, "byteOffset" : 0, "componentType" : 5126, "count" : 166, "type" : "VEC3", "max" : [7.715760231018066, 59.720001220703125, 35.835201263427734], "min" : [-7.715760231018066, 44.28850173950195, 6.6779398918151855], "name" : "POSITION"}, {"bufferView" : 3, "byteOffset" : 12, "componentType" : 5126, "count" : 166, "type" : "VEC3", "max" : [0.9984402656555176, 0.9984403848648071, 1.0000044107437134], "min" : [-0.9997358322143555, -0.9984403848648071, -1.0000044107437134], "name" : "NORMAL"}, {"bufferView" : 3, "byteOffset" : 24, "componentType" : 5126, "count" : 166, "type" : "VEC2", "max" : [0.9858070015907288, 0.9957630038261414], "min" : [0.014230960048735142, -0.8401299715042114], "name" : "TEXCOORD_0"}], "asset" : {"generator" : "Aspose.3D 24.9.1", "version" : "2.0"}, "buffers" : [{"uri" : "data:application/octet-stream;base64,", "byteLength" : 123060}], "bufferViews" : [{"buffer" : 0, "byteOffset" : 0, "byteLength" : 27588, "target" : 34963}, {"buffer" : 0, "byteOffset" : 27592, "byteLength" : 3840, "byteStride" : 32, "target" : 34962}, {"buffer" : 0, "byteOffset" : 31436, "byteLength" : 86304, "byteStride" : 32, "target" : 34962}, {"buffer" : 0, "byteOffset" : 117744, "byteLength" : 5312, "byteStride" : 32, "target" : 34962}], "cameras" : [{"perspective" : {"aspectRatio" : 1.777778, "yfov" : 0.9902664817928695, "zfar" : 100, "znear" : 0.1}, "type" : "perspective", "name" : "Camera"}], "images" : [{"uri" : "data:image/png;base64,"}, {"uri" : "data:image/png;base64,"}], "materials" : [{"name" : "Material__34.001", "pbrMetallicRoughness" : {"baseColorFactor" : [1, 1, 1, 1], "baseColorTexture" : {"index" : 0, "texCoord" : 0}, "metallicFactor" : 1, "roughnessFactor" : 1}, "emissiveFactor" : [0, 0, 0], "alphaMode" : "OPAQUE", "doubleSided" : false}, {"name" : "Material__35.001", "pbrMetallicRoughness" : {"baseColorFactor" : [1, 1, 1, 1], "baseColorTexture" : {"index" : 1, "texCoord" : 0}, "metallicFactor" : 1, "roughnessFactor" : 1}, "emissiveFactor" : [0, 0, 0], "alphaMode" : "OPAQUE", "doubleSided" : false}, {"name" : "Material__36.001", "pbrMetallicRoughness" : {"baseColorFactor" : [0.8, 0.8, 0.8, 1], "metallicFactor" : 1, "roughnessFactor" : 1}, "emissiveFactor" : [0, 0, 0], "alphaMode" : "OPAQUE", "doubleSided" : false}], "meshes" : [{"primitives" : [{"attributes" : {"POSITION" : 1, "NORMAL" : 2, "TEXCOORD_0" : 3}, "indices" : 0, "material" : 0, "mode" : 4}, {"attributes" : {"POSITION" : 5, "NORMAL" : 6, "TEXCOORD_0" : 7}, "indices" : 4, "material" : 1, "mode" : 4}, {"attributes" : {"POSITION" : 9, "NORMAL" : 10, "TEXCOORD_0" : 11}, "indices" : 8, "material" : 2, "mode" : 4}], "name" : ""}], "nodes" : [{"camera" : 0, "matrix" : [0.6859206, 8.19893E-09, 0.7276765, 0, -0.3240135, -0.8953961, 0.3054209, 0, 0.6515584, -0.4452715, -0.6141708, 0, 7.358891, -4.958309, -6.925791, 1], "name" : "Camera"}, {"matrix" : [-0.7580474, 0, 6.62706E-08, 0, 6.62706E-08, -3.31353E-08, 0.7580474, 0, 2.89678E-15, 0.7580474, 3.31353E-08, 0, 0, 0, 0, 1], "mesh" : 0, "name" : "Charmander"}], "samplers" : [{"magFilter" : 9729, "minFilter" : 9987, "wrapS" : 10497, "wrapT" : 10497}, {"magFilter" : 9729, "minFilter" : 9987, "wrapS" : 10497, "wrapT" : 10497}], "scene" : 0, "scenes" : [{"nodes" : [0, 1]}], "textures" : [{"sampler" : 0, "source" : 0, "name" : "pm0004_00_Eye1_png"}, {"sampler" : 1, "source" : 1, "name" : "pm0004_00_Body1_png"}]}