{"accessors" : [{"bufferView" : 0, "byteOffset" : 0, "componentType" : 5123, "count" : 13692, "type" : "SCALAR", "max" : [2840], "min" : [0]}, {"bufferView" : 1, "byteOffset" : 0, "componentType" : 5126, "count" : 2841, "type" : "VEC3", "max" : [18.56800079345703, 25.809200286865234, 43.93510055541992], "min" : [-18.56800079345703, -21.677000045776367, 0], "name" : "POSITION"}, {"bufferView" : 1, "byteOffset" : 12, "componentType" : 5126, "count" : 2841, "type" : "VEC3", "max" : [0.9994274973869324, 0.9996920824050903, 0.9991201162338257], "min" : [-0.9994273781776428, -0.9999572038650513, -1.0000044107437134], "name" : "NORMAL"}, {"bufferView" : 1, "byteOffset" : 24, "componentType" : 5126, "count" : 2841, "type" : "VEC2", "max" : [0.9980000257492065, 0.9932140111923218], "min" : [0.0019999740179628134, 0.009500980377197266], "name" : "TEXCOORD_0"}, {"bufferView" : 0, "byteOffset" : 27384, "componentType" : 5123, "count" : 552, "type" : "SCALAR", "max" : [119], "min" : [0]}, {"bufferView" : 2, "byteOffset" : 0, "componentType" : 5126, "count" : 120, "type" : "VEC3", "max" : [9.02112102508545, -15.75570011138916, 40.06119918823242], "min" : [-9.02112102508545, -20.523399353027344, 29.805700302124023], "name" : "POSITION"}, {"bufferView" : 2, "byteOffset" : 12, "componentType" : 5126, "count" : 120, "type" : "VEC3", "max" : [0.8729148507118225, -0.46679016947746277, 0.5892996191978455], "min" : [-0.8729151487350464, -0.9368594884872437, -0.09855413436889648], "name" : "NORMAL"}, {"bufferView" : 2, "byteOffset" : 24, "componentType" : 5126, "count" : 120, "type" : "VEC2", "max" : [0.4517199993133545, -0.7571799755096436], "min" : [0.048282019793987274, -0.9923900365829468], "name" : "TEXCOORD_0"}], "asset" : {"generator" : "Aspose.3D 24.9.1", "version" : "2.0"}, "buffers" : [{"uri" : "data:application/octet-stream;base64,", "byteLength" : 123252}], "bufferViews" : [{"buffer" : 0, "byteOffset" : 0, "byteLength" : 28488, "target" : 34963}, {"buffer" : 0, "byteOffset" : 28492, "byteLength" : 90912, "byteStride" : 32, "target" : 34962}, {"buffer" : 0, "byteOffset" : 119408, "byteLength" : 3840, "byteStride" : 32, "target" : 34962}], "cameras" : [{"perspective" : {"aspectRatio" : 1.777778, "yfov" : 0.6911111138815845, "zfar" : 100, "znear" : 0.1}, "type" : "perspective", "name" : "Camera"}], "images" : [{"uri" : "data:image/png;base64,"}, {"uri" : "data:image/png;base64,"}], "materials" : [{"name" : "Material__60", "pbrMetallicRoughness" : {"baseColorFactor" : [1, 1, 1, 1], "baseColorTexture" : {"index" : 0, "texCoord" : 0}, "metallicFactor" : 1, "roughnessFactor" : 1}, "emissiveFactor" : [0, 0, 0], "alphaMode" : "OPAQUE", "doubleSided" : false}, {"name" : "Material__61", "pbrMetallicRoughness" : {"baseColorFactor" : [1, 1, 1, 1], "baseColorTexture" : {"index" : 1, "texCoord" : 0}, "metallicFactor" : 1, "roughnessFactor" : 1}, "emissiveFactor" : [0, 0, 0], "alphaMode" : "OPAQUE", "doubleSided" : false}], "meshes" : [{"primitives" : [{"attributes" : {"POSITION" : 1, "NORMAL" : 2, "TEXCOORD_0" : 3}, "indices" : 0, "material" : 0, "mode" : 4}, {"attributes" : {"POSITION" : 5, "NORMAL" : 6, "TEXCOORD_0" : 7}, "indices" : 4, "material" : 1, "mode" : 4}], "name" : ""}], "nodes" : [{"matrix" : [-1, 0, 8.74228E-08, 0, 8.74228E-08, -4.37114E-08, 1, 0, 3.82137E-15, 1, 4.37114E-08, 0, 0, 0, 0, 1], "mesh" : 0, "name" : "Squirtle"}, {"camera" : 0, "matrix" : [0.6859207, 0.7276763, 0, 0, -0.3240135, 0.3054208, 0.8953956, 0, 0.6515582, -0.6141704, 0.4452714, 0, 7.358891, -6.925791, 4.958309, 1], "name" : "Camera"}], "samplers" : [{"magFilter" : 9729, "minFilter" : 9987, "wrapS" : 10497, "wrapT" : 10497}, {"magFilter" : 9729, "minFilter" : 9987, "wrapS" : 10497, "wrapT" : 10497}], "scene" : 0, "scenes" : [{"nodes" : [0, 1]}], "textures" : [{"sampler" : 0, "source" : 0, "name" : "pm0007_00_Body1_png"}, {"sampler" : 1, "source" : 1, "name" : "pm0007_00_Eye1_png"}]}